<svg xmlns="http://www.w3.org/2000/svg" width="24" height="24" viewBox="0 0 24 24">
  <g fill="none" fill-rule="evenodd">
    <rect width="23" height="23" x=".5" y=".5" stroke="#000" stroke-opacity=".65" rx="11.5"/>
    <path fill="#000" fill-opacity=".65" fill-rule="nonzero" d="M11.7987626,20 C13.9898125,20 16.0480034,19.1467828 17.5972761,17.5979467 C19.1465489,16.0491106 20,13.9892485 20,11.8010672 C20,10.000095 19.4212746,8.3026786 18.3268755,6.88666416 C17.8021945,6.20904834 17.1761802,5.61922993 16.4623438,5.1307162 C15.7440036,4.63995126 14.9513525,4.2639983 14.1114124,4.01636461 C13.9582866,3.97134031 13.7916498,4.02086704 13.6903165,4.14468389 C13.5889833,4.26850073 13.5687166,4.4395931 13.6430277,4.58141966 C14.1587013,5.58771291 14.3996492,6.54447943 14.3996492,7.5980482 C14.3996492,11.3463217 11.3483926,14.3967185 7.59906246,14.3967185 C6.54519669,14.3967185 5.58590862,14.1558385 4.58158356,13.6403101 C4.43971701,13.5682713 4.26632457,13.586281 4.14472467,13.6875857 C4.02087293,13.7888904 3.97133223,13.9554803 4.01636923,14.1085629 C4.26407272,14.9482663 4.63787981,15.7384428 5.13103494,16.4588317 C5.61743452,17.172467 6.20967105,17.8005561 6.88747788,18.322838 C8.2069212,19.3548796 9.78365596,19.9278842 11.4618229,19.9936288 L11.7987626,20 Z"/>
  </g>
</svg>
